M48
;Layer_Color=9474304
;FILE_FORMAT=4:3
METRIC,LZ
;TYPE=PLATED
T01F00S00C0.300
T03F00S00C1.000
T04F00S00C2.200
;TYPE=NON_PLATED
T05F00S00C0.650
%
T01
X0000913Y0002234
X0002094Y0006094
X0003094Y0008094
X0005362Y000874
X00065Y0008746
X0006483Y000983
X0005754Y0009828
X0004094Y0010094
X0002094
X0003094Y0012094
X0005094
X0008915Y0012319
X0009587Y0012322
X0010204Y0012219
X0009652Y0011355
Y0010644
X0008915Y0011355
X0009746Y0013284
X0009652Y0007406
Y0006669
X0008915
Y0005705
X0009652
X0009436Y0003984
X0010825Y0004248
X0010115Y0002369
X0011649Y0002342
X0012319Y0002311
X001303Y0002337
X0012012Y0001008
X0013486Y0004232
X0013513Y0005105
X0012133Y0007147
X000657Y0001777
X0013787Y0000941
X0015494Y0003099
X0016205
X0016867
X0018948Y0003277
Y000447
X0017247Y0006147
X0016856Y0007219
X0016875Y0008254
X0016637Y0009169
X0018974Y0010008
X002Y0009
X0021026Y0007992
X0021031Y0010033
X0023241Y0009754
X002319Y0008738
X0023851Y0009246
X0024403Y0010171
X0025752Y0010429
X0025644Y0009538
X0025552Y000889
X0026822Y0006909
Y0006172
X0026086
X0023495Y0006121
X002352Y0005385
X0024384Y0003327
X0025062Y0003924
X0026924Y0002057
X0022276Y0001067
X0021006Y0002235
X0019329Y0001067
X0018969Y0007967
X0014072Y0007874
X0015094Y0012094
X0016485Y0012802
X0018628Y0013741
X0023094Y0012094
X0023673Y0011176
X0028941Y0010178
X0028888Y0009591
X0036094Y0010094
X0038094
X0037795Y000856
X0037465Y0008026
X0037094Y0012094
X0037313Y0002083
X0038094Y0002094
X0040094
X0042094Y0006094
X0047094Y0004094
X0047193Y0013157
X0047066Y0016688
X0046094Y0018094
X0044094
X0042094
X0040094
X0038094
X0036094
X0037094Y0016094
X0039094
X0041094
X0039878Y0014757
X0038094Y0014094
X0036094
X0033167Y0015933
X003365Y00171
X0033167Y0018267
X0032Y001875
X0030833Y0018267
X003035Y00171
X0030833Y0015933
X0032Y001545
X0025552Y0013919
X0024765
X0021971Y0013792
X0004094Y0014094
X0004067Y0015933
X000455Y00171
X0004067Y0018267
X00029Y001875
X0001733Y0018267
X000125Y00171
X0001733Y0015933
X00029Y001545
T03
X0043485Y0002464
X0046025
Y0005004
Y0007544
Y0010084
X0043485
Y0007544
Y0005004
X002762Y00156
Y001814
X002508
X002254
X002
X001746
X001492
Y00156
X001746
X002
X002254
X002508
X001238
Y001814
X000984
Y00156
X00073
Y001814
T04
X0032Y00171
X00029
T05
X0006602Y000611
Y001189
M30
