%TF.GenerationSoftware,Altium Limited,Altium Designer,24.10.1 (45)*%
G04 Layer_Color=8421504*
%FSLAX43Y43*%
%MOMM*%
%TF.SameCoordinates,E3F4C47D-CD2F-45B5-B10E-3CDC114D9125*%
%TF.FilePolarity,Positive*%
%TF.FileFunction,Paste,Top*%
%TF.Part,Single*%
G01*
G75*
%TA.AperFunction,SMDPad,CuDef*%
G04:AMPARAMS|DCode=12|XSize=0.239mm|YSize=0.979mm|CornerRadius=0.12mm|HoleSize=0mm|Usage=FLASHONLY|Rotation=90.000|XOffset=0mm|YOffset=0mm|HoleType=Round|Shape=RoundedRectangle|*
%AMROUNDEDRECTD12*
21,1,0.239,0.740,0,0,90.0*
21,1,0.000,0.979,0,0,90.0*
1,1,0.239,0.370,0.000*
1,1,0.239,0.370,0.000*
1,1,0.239,-0.370,0.000*
1,1,0.239,-0.370,0.000*
%
%ADD12ROUNDEDRECTD12*%
G04:AMPARAMS|DCode=13|XSize=0.979mm|YSize=0.239mm|CornerRadius=0.12mm|HoleSize=0mm|Usage=FLASHONLY|Rotation=90.000|XOffset=0mm|YOffset=0mm|HoleType=Round|Shape=RoundedRectangle|*
%AMROUNDEDRECTD13*
21,1,0.979,0.000,0,0,90.0*
21,1,0.740,0.239,0,0,90.0*
1,1,0.239,0.000,0.370*
1,1,0.239,0.000,-0.370*
1,1,0.239,0.000,-0.370*
1,1,0.239,0.000,0.370*
%
%ADD13ROUNDEDRECTD13*%
%ADD14R,0.239X0.979*%
%TA.AperFunction,ConnectorPad*%
%ADD16R,1.150X0.300*%
%ADD17R,1.150X0.600*%
%TA.AperFunction,SMDPad,CuDef*%
G04:AMPARAMS|DCode=18|XSize=0.65mm|YSize=1.6mm|CornerRadius=0.114mm|HoleSize=0mm|Usage=FLASHONLY|Rotation=180.000|XOffset=0mm|YOffset=0mm|HoleType=Round|Shape=RoundedRectangle|*
%AMROUNDEDRECTD18*
21,1,0.650,1.373,0,0,180.0*
21,1,0.422,1.600,0,0,180.0*
1,1,0.228,-0.211,0.686*
1,1,0.228,0.211,0.686*
1,1,0.228,0.211,-0.686*
1,1,0.228,-0.211,-0.686*
%
%ADD18ROUNDEDRECTD18*%
%ADD19R,0.650X1.600*%
G04:AMPARAMS|DCode=20|XSize=1.156mm|YSize=0.536mm|CornerRadius=0.268mm|HoleSize=0mm|Usage=FLASHONLY|Rotation=90.000|XOffset=0mm|YOffset=0mm|HoleType=Round|Shape=RoundedRectangle|*
%AMROUNDEDRECTD20*
21,1,1.156,0.000,0,0,90.0*
21,1,0.620,0.536,0,0,90.0*
1,1,0.536,0.000,0.310*
1,1,0.536,0.000,-0.310*
1,1,0.536,0.000,-0.310*
1,1,0.536,0.000,0.310*
%
%ADD20ROUNDEDRECTD20*%
%ADD21R,0.536X1.156*%
G04:AMPARAMS|DCode=22|XSize=0.65mm|YSize=1.9mm|CornerRadius=0.163mm|HoleSize=0mm|Usage=FLASHONLY|Rotation=90.000|XOffset=0mm|YOffset=0mm|HoleType=Round|Shape=RoundedRectangle|*
%AMROUNDEDRECTD22*
21,1,0.650,1.575,0,0,90.0*
21,1,0.325,1.900,0,0,90.0*
1,1,0.325,0.788,0.163*
1,1,0.325,0.788,-0.163*
1,1,0.325,-0.788,-0.163*
1,1,0.325,-0.788,0.163*
%
%ADD22ROUNDEDRECTD22*%
%ADD23R,1.900X0.650*%
%ADD24R,0.830X0.625*%
%ADD25R,0.500X0.800*%
G04:AMPARAMS|DCode=26|XSize=0.8mm|YSize=1mm|CornerRadius=0.1mm|HoleSize=0mm|Usage=FLASHONLY|Rotation=90.000|XOffset=0mm|YOffset=0mm|HoleType=Round|Shape=RoundedRectangle|*
%AMROUNDEDRECTD26*
21,1,0.800,0.800,0,0,90.0*
21,1,0.600,1.000,0,0,90.0*
1,1,0.200,0.400,0.300*
1,1,0.200,0.400,-0.300*
1,1,0.200,-0.400,-0.300*
1,1,0.200,-0.400,0.300*
%
%ADD26ROUNDEDRECTD26*%
%ADD33R,0.800X0.900*%
%ADD34R,0.900X0.800*%
%ADD35R,0.800X0.500*%
%TA.AperFunction,ConnectorPad*%
%ADD36R,0.830X0.625*%
%TA.AperFunction,ComponentPad*%
%ADD48C,0.650*%
%ADD49O,2.100X1.000*%
%ADD50O,1.800X1.000*%
G04:AMPARAMS|DCode=51|XSize=1.7mm|YSize=1.7mm|CornerRadius=0.85mm|HoleSize=0mm|Usage=FLASHONLY|Rotation=90.000|XOffset=0mm|YOffset=0mm|HoleType=Round|Shape=RoundedRectangle|*
%AMROUNDEDRECTD51*
21,1,1.700,0.000,0,0,90.0*
21,1,0.000,1.700,0,0,90.0*
1,1,1.700,0.000,0.000*
1,1,1.700,0.000,0.000*
1,1,1.700,0.000,0.000*
1,1,1.700,0.000,0.000*
%
%ADD51ROUNDEDRECTD51*%
%ADD52R,1.700X1.700*%
G04:AMPARAMS|DCode=53|XSize=1.7mm|YSize=1.7mm|CornerRadius=0.85mm|HoleSize=0mm|Usage=FLASHONLY|Rotation=0.000|XOffset=0mm|YOffset=0mm|HoleType=Round|Shape=RoundedRectangle|*
%AMROUNDEDRECTD53*
21,1,1.700,0.000,0,0,0.0*
21,1,0.000,1.700,0,0,0.0*
1,1,1.700,0.000,0.000*
1,1,1.700,0.000,0.000*
1,1,1.700,0.000,0.000*
1,1,1.700,0.000,0.000*
%
%ADD53ROUNDEDRECTD53*%
%ADD54R,1.700X1.700*%
%ADD55C,0.800*%
%TA.AperFunction,NonConductor*%
%ADD58R,1.708X1.708*%
%ADD59R,0.250X0.330*%
%ADD60R,0.250X0.560*%
%ADD61R,0.250X0.330*%
%ADD62R,0.250X0.330*%
%ADD63R,1.050X0.900*%
%ADD64R,0.250X0.330*%
D12*
X18010Y7750D02*
D03*
Y8250D02*
D03*
Y8750D02*
D03*
Y9250D02*
D03*
Y9750D02*
D03*
Y10250D02*
D03*
X21990D02*
D03*
Y9750D02*
D03*
Y9250D02*
D03*
Y8750D02*
D03*
Y8250D02*
D03*
Y7750D02*
D03*
D13*
X18750Y10989D02*
D03*
X19250D02*
D03*
X19750D02*
D03*
X20250D02*
D03*
X20750D02*
D03*
X21250D02*
D03*
Y7010D02*
D03*
X20750D02*
D03*
X20250D02*
D03*
X19750D02*
D03*
X19250D02*
D03*
D14*
X18750D02*
D03*
D16*
X7677Y9750D02*
D03*
Y10250D02*
D03*
Y8750D02*
D03*
Y9250D02*
D03*
Y10750D02*
D03*
Y7750D02*
D03*
Y7250D02*
D03*
Y8250D02*
D03*
D17*
Y12200D02*
D03*
Y11400D02*
D03*
Y5800D02*
D03*
Y6600D02*
D03*
D18*
X16306Y4333D02*
D03*
X14406D02*
D03*
X16306Y1833D02*
D03*
X15356D02*
D03*
D19*
X14406D02*
D03*
D20*
X13073Y10175D02*
D03*
X12123D02*
D03*
X11173D02*
D03*
X12123Y8025D02*
D03*
X13073D02*
D03*
D21*
X11173D02*
D03*
D22*
X35650Y5905D02*
D03*
Y4635D02*
D03*
Y3365D02*
D03*
Y2095D02*
D03*
X28350D02*
D03*
Y3365D02*
D03*
Y4635D02*
D03*
D23*
Y5905D02*
D03*
D24*
X43231Y16378D02*
D03*
Y14153D02*
D03*
D25*
X46445Y16662D02*
D03*
X44945D02*
D03*
X10658Y13244D02*
D03*
X9158D02*
D03*
X26455Y8839D02*
D03*
X24955D02*
D03*
X26429Y7645D02*
D03*
X24929D02*
D03*
X18632Y12627D02*
D03*
X17132D02*
D03*
X13164Y6242D02*
D03*
X11664D02*
D03*
X19317Y1833D02*
D03*
X17817D02*
D03*
D26*
X28372Y12620D02*
D03*
Y11120D02*
D03*
X26581Y12620D02*
D03*
Y11120D02*
D03*
X24790Y12620D02*
D03*
Y11120D02*
D03*
D33*
X21222Y12627D02*
D03*
X19722D02*
D03*
X46903Y12344D02*
D03*
X45603D02*
D03*
X23662Y3371D02*
D03*
X22362D02*
D03*
X12194Y11878D02*
D03*
X10894D02*
D03*
X21046Y3320D02*
D03*
X19746D02*
D03*
X23662Y4547D02*
D03*
X22362D02*
D03*
X28819Y8839D02*
D03*
X27519D02*
D03*
X28819Y7645D02*
D03*
X27519D02*
D03*
X21046Y4496D02*
D03*
X19746D02*
D03*
D34*
X9393Y2294D02*
D03*
Y994D02*
D03*
X14580Y7152D02*
D03*
Y5852D02*
D03*
X10827Y2294D02*
D03*
Y994D02*
D03*
X37465Y7279D02*
D03*
Y5979D02*
D03*
X38811Y8397D02*
D03*
Y7097D02*
D03*
X39903Y14010D02*
D03*
Y12710D02*
D03*
D35*
X7960Y2388D02*
D03*
Y888D02*
D03*
X9424Y4871D02*
D03*
Y3371D02*
D03*
X6570Y2388D02*
D03*
Y888D02*
D03*
X12261Y4871D02*
D03*
Y3371D02*
D03*
X10827Y4871D02*
D03*
Y3371D02*
D03*
X26289Y5398D02*
D03*
Y3898D02*
D03*
X24917Y6135D02*
D03*
Y4635D02*
D03*
X38811Y6135D02*
D03*
Y4635D02*
D03*
X40192Y5356D02*
D03*
Y3856D02*
D03*
X41148Y14136D02*
D03*
Y12636D02*
D03*
D36*
X4938Y2984D02*
D03*
Y759D02*
D03*
D48*
X6602Y11890D02*
D03*
Y6110D02*
D03*
D49*
X7102Y13320D02*
D03*
Y4680D02*
D03*
D50*
X2922Y13320D02*
D03*
Y4680D02*
D03*
D51*
X22540Y18140D02*
D03*
X25080D02*
D03*
X20000D02*
D03*
X27620D02*
D03*
X12380D02*
D03*
X14920D02*
D03*
X9840D02*
D03*
X17460D02*
D03*
X12380Y15600D02*
D03*
X27620D02*
D03*
X25080D02*
D03*
X17460D02*
D03*
X14920D02*
D03*
X22540D02*
D03*
X20000D02*
D03*
X9840D02*
D03*
X7300Y18140D02*
D03*
D52*
Y15600D02*
D03*
D53*
X46025Y7544D02*
D03*
Y10084D02*
D03*
Y2464D02*
D03*
Y5004D02*
D03*
X43485D02*
D03*
Y2464D02*
D03*
Y7544D02*
D03*
D54*
Y10084D02*
D03*
D55*
X33167Y18267D02*
D03*
X33650Y17100D02*
D03*
X32000Y18750D02*
D03*
X30833Y18267D02*
D03*
X33167Y15933D02*
D03*
X32000Y15450D02*
D03*
X30350Y17100D02*
D03*
X30833Y15933D02*
D03*
X4067Y18267D02*
D03*
X4550Y17100D02*
D03*
X2900Y18750D02*
D03*
X1733Y18267D02*
D03*
X4067Y15933D02*
D03*
X2900Y15450D02*
D03*
X1250Y17100D02*
D03*
X1733Y15933D02*
D03*
D58*
X20000Y9000D02*
D03*
D59*
X3193Y3165D02*
D03*
X46237Y15438D02*
D03*
D60*
X3318Y2230D02*
D03*
X44812Y14503D02*
D03*
D61*
X1893Y3165D02*
D03*
X46237Y13568D02*
D03*
D62*
X2543Y3165D02*
D03*
X3193Y1295D02*
D03*
X2543D02*
D03*
X45587Y15438D02*
D03*
X44937Y15438D02*
D03*
X45587Y13568D02*
D03*
D63*
X2258Y2230D02*
D03*
X45872Y14504D02*
D03*
D64*
X1893Y1295D02*
D03*
X44937Y13568D02*
D03*
%TF.MD5,dda06a986b1487b938631b6dd54825bb*%
M02*
