%TF.GenerationSoftware,Altium Limited,Altium Designer,24.10.1 (45)*%
G04 Layer_Color=2752767*
%FSLAX43Y43*%
%MOMM*%
%TF.SameCoordinates,A2A37C0A-2E4C-4D70-BEA9-A141BDB90E95*%
%TF.FilePolarity,Positive*%
%TF.FileFunction,Drawing*%
%TF.Part,Single*%
G01*
G75*
%TA.AperFunction,NonConductor*%
%ADD52C,0.127*%
%ADD53C,0.169*%
D52*
X2922Y4172D02*
X3177Y4426D01*
X3431D01*
X3177Y4680D01*
X3431Y4934D01*
X3177D01*
X2922Y5188D01*
X2668Y4934D01*
X2414D01*
X2668Y4680D01*
X2414Y4426D01*
X2668D01*
X2922Y4172D01*
X6848Y4426D02*
Y4172D01*
X7357D01*
Y4426D01*
X7610D01*
Y4934D01*
X7357D01*
Y5188D01*
X6848D01*
Y4934D01*
X6595D01*
Y4426D01*
X6848D01*
X2922Y12812D02*
X3177Y13066D01*
X3431D01*
X3177Y13320D01*
X3431Y13574D01*
X3177D01*
X2922Y13828D01*
X2668Y13574D01*
X2414D01*
X2668Y13320D01*
X2414Y13066D01*
X2668D01*
X2922Y12812D01*
X6848Y13066D02*
Y12812D01*
X7357D01*
Y13066D01*
X7610D01*
Y13574D01*
X7357D01*
Y13828D01*
X6848D01*
Y13574D01*
X6595D01*
Y13066D01*
X6848D01*
X6095Y5602D02*
X6348Y6110D01*
X6095Y6618D01*
X6602Y6364D01*
X7110Y6618D01*
X6857Y6110D01*
X7110Y5602D01*
X6602Y5856D01*
X6095Y5602D01*
Y11382D02*
X6348Y11890D01*
X6095Y12398D01*
X6602Y12144D01*
X7110Y12398D01*
X6857Y11890D01*
X7110Y11382D01*
X6602Y11636D01*
X6095Y11382D01*
X7300Y17632D02*
X6792Y18648D01*
X7808D01*
X7300Y17632D01*
Y15092D02*
X6792Y16108D01*
X7808D01*
X7300Y15092D01*
X9840D02*
X9332Y16108D01*
X10348D01*
X9840Y15092D01*
X20000D02*
X19492Y16108D01*
X20508D01*
X20000Y15092D01*
X22540D02*
X22032Y16108D01*
X23048D01*
X22540Y15092D01*
X14920D02*
X14412Y16108D01*
X15428D01*
X14920Y15092D01*
X17460D02*
X16952Y16108D01*
X17968D01*
X17460Y15092D01*
X25080D02*
X24572Y16108D01*
X25588D01*
X25080Y15092D01*
X27620D02*
X27112Y16108D01*
X28128D01*
X27620Y15092D01*
X12380D02*
X11872Y16108D01*
X12888D01*
X12380Y15092D01*
X17460Y17632D02*
X16952Y18648D01*
X17968D01*
X17460Y17632D01*
X9840D02*
X9332Y18648D01*
X10348D01*
X9840Y17632D01*
X14920D02*
X14412Y18648D01*
X15428D01*
X14920Y17632D01*
X12380D02*
X11872Y18648D01*
X12888D01*
X12380Y17632D01*
X27620D02*
X27112Y18648D01*
X28128D01*
X27620Y17632D01*
X20000D02*
X19492Y18648D01*
X20508D01*
X20000Y17632D01*
X25080D02*
X24572Y18648D01*
X25588D01*
X25080Y17632D01*
X22540D02*
X22032Y18648D01*
X23048D01*
X22540Y17632D01*
X43485Y7036D02*
X42977Y8052D01*
X43993D01*
X43485Y7036D01*
Y1956D02*
X42977Y2972D01*
X43993D01*
X43485Y1956D01*
Y4496D02*
X42977Y5512D01*
X43993D01*
X43485Y4496D01*
X46025D02*
X45517Y5512D01*
X46533D01*
X46025Y4496D01*
Y1956D02*
X45517Y2972D01*
X46533D01*
X46025Y1956D01*
X43485Y9576D02*
X42977Y10592D01*
X43993D01*
X43485Y9576D01*
X46025D02*
X45517Y10592D01*
X46533D01*
X46025Y9576D01*
Y7036D02*
X45517Y8052D01*
X46533D01*
X46025Y7036D01*
X30325Y15425D02*
X30579D01*
X30833Y15679D01*
X31087Y15425D01*
X31341D01*
Y15679D01*
X31087Y15933D01*
X31341Y16187D01*
Y16441D01*
X31087D01*
X30833Y16187D01*
X30579Y16441D01*
X30325D01*
Y16187D01*
X30579Y15933D01*
X30325Y15679D01*
Y15425D01*
X29842Y16592D02*
X30096D01*
X30350Y16846D01*
X30604Y16592D01*
X30858D01*
Y16846D01*
X30604Y17100D01*
X30858Y17354D01*
Y17608D01*
X30604D01*
X30350Y17354D01*
X30096Y17608D01*
X29842D01*
Y17354D01*
X30096Y17100D01*
X29842Y16846D01*
Y16592D01*
X31492Y17100D02*
X32000Y17608D01*
X32508Y17100D01*
X32000Y16592D01*
X31492Y17100D01*
Y14942D02*
X31746D01*
X32000Y15196D01*
X32254Y14942D01*
X32508D01*
Y15196D01*
X32254Y15450D01*
X32508Y15704D01*
Y15958D01*
X32254D01*
X32000Y15704D01*
X31746Y15958D01*
X31492D01*
Y15704D01*
X31746Y15450D01*
X31492Y15196D01*
Y14942D01*
X32659Y15425D02*
X32913D01*
X33167Y15679D01*
X33421Y15425D01*
X33675D01*
Y15679D01*
X33421Y15933D01*
X33675Y16187D01*
Y16441D01*
X33421D01*
X33167Y16187D01*
X32913Y16441D01*
X32659D01*
Y16187D01*
X32913Y15933D01*
X32659Y15679D01*
Y15425D01*
X30325Y17759D02*
X30579D01*
X30833Y18013D01*
X31087Y17759D01*
X31341D01*
Y18013D01*
X31087Y18267D01*
X31341Y18521D01*
Y18775D01*
X31087D01*
X30833Y18521D01*
X30579Y18775D01*
X30325D01*
Y18521D01*
X30579Y18267D01*
X30325Y18013D01*
Y17759D01*
X31492Y18242D02*
X31746D01*
X32000Y18496D01*
X32254Y18242D01*
X32508D01*
Y18496D01*
X32254Y18750D01*
X32508Y19004D01*
Y19258D01*
X32254D01*
X32000Y19004D01*
X31746Y19258D01*
X31492D01*
Y19004D01*
X31746Y18750D01*
X31492Y18496D01*
Y18242D01*
X33142Y16592D02*
X33396D01*
X33650Y16846D01*
X33904Y16592D01*
X34158D01*
Y16846D01*
X33904Y17100D01*
X34158Y17354D01*
Y17608D01*
X33904D01*
X33650Y17354D01*
X33396Y17608D01*
X33142D01*
Y17354D01*
X33396Y17100D01*
X33142Y16846D01*
Y16592D01*
X32659Y17759D02*
X32913D01*
X33167Y18013D01*
X33421Y17759D01*
X33675D01*
Y18013D01*
X33421Y18267D01*
X33675Y18521D01*
Y18775D01*
X33421D01*
X33167Y18521D01*
X32913Y18775D01*
X32659D01*
Y18521D01*
X32913Y18267D01*
X32659Y18013D01*
Y17759D01*
X1225Y15425D02*
X1479D01*
X1733Y15679D01*
X1987Y15425D01*
X2241D01*
Y15679D01*
X1987Y15933D01*
X2241Y16187D01*
Y16441D01*
X1987D01*
X1733Y16187D01*
X1479Y16441D01*
X1225D01*
Y16187D01*
X1479Y15933D01*
X1225Y15679D01*
Y15425D01*
X742Y16592D02*
X996D01*
X1250Y16846D01*
X1504Y16592D01*
X1758D01*
Y16846D01*
X1504Y17100D01*
X1758Y17354D01*
Y17608D01*
X1504D01*
X1250Y17354D01*
X996Y17608D01*
X742D01*
Y17354D01*
X996Y17100D01*
X742Y16846D01*
Y16592D01*
X2392Y17100D02*
X2900Y17608D01*
X3408Y17100D01*
X2900Y16592D01*
X2392Y17100D01*
Y14942D02*
X2646D01*
X2900Y15196D01*
X3154Y14942D01*
X3408D01*
Y15196D01*
X3154Y15450D01*
X3408Y15704D01*
Y15958D01*
X3154D01*
X2900Y15704D01*
X2646Y15958D01*
X2392D01*
Y15704D01*
X2646Y15450D01*
X2392Y15196D01*
Y14942D01*
X3559Y15425D02*
X3813D01*
X4067Y15679D01*
X4321Y15425D01*
X4575D01*
Y15679D01*
X4321Y15933D01*
X4575Y16187D01*
Y16441D01*
X4321D01*
X4067Y16187D01*
X3813Y16441D01*
X3559D01*
Y16187D01*
X3813Y15933D01*
X3559Y15679D01*
Y15425D01*
X1225Y17759D02*
X1479D01*
X1733Y18013D01*
X1987Y17759D01*
X2241D01*
Y18013D01*
X1987Y18267D01*
X2241Y18521D01*
Y18775D01*
X1987D01*
X1733Y18521D01*
X1479Y18775D01*
X1225D01*
Y18521D01*
X1479Y18267D01*
X1225Y18013D01*
Y17759D01*
X2392Y18242D02*
X2646D01*
X2900Y18496D01*
X3154Y18242D01*
X3408D01*
Y18496D01*
X3154Y18750D01*
X3408Y19004D01*
Y19258D01*
X3154D01*
X2900Y19004D01*
X2646Y19258D01*
X2392D01*
Y19004D01*
X2646Y18750D01*
X2392Y18496D01*
Y18242D01*
X4042Y16592D02*
X4296D01*
X4550Y16846D01*
X4804Y16592D01*
X5058D01*
Y16846D01*
X4804Y17100D01*
X5058Y17354D01*
Y17608D01*
X4804D01*
X4550Y17354D01*
X4296Y17608D01*
X4042D01*
Y17354D01*
X4296Y17100D01*
X4042Y16846D01*
Y16592D01*
X3559Y17759D02*
X3813D01*
X4067Y18013D01*
X4321Y17759D01*
X4575D01*
Y18013D01*
X4321Y18267D01*
X4575Y18521D01*
Y18775D01*
X4321D01*
X4067Y18521D01*
X3813Y18775D01*
X3559D01*
Y18521D01*
X3813Y18267D01*
X3559Y18013D01*
Y17759D01*
X22586Y11586D02*
Y12602D01*
X23602D01*
Y11586D01*
X22586D01*
X14586D02*
Y12602D01*
X15602D01*
Y11586D01*
X14586D01*
X3586Y13586D02*
Y14602D01*
X4602D01*
Y13586D01*
X3586D01*
X4586Y11586D02*
Y12602D01*
X5602D01*
Y11586D01*
X4586D01*
X3586Y9586D02*
Y10602D01*
X4602D01*
Y9586D01*
X3586D01*
X2586Y11586D02*
Y12602D01*
X3602D01*
Y11586D01*
X2586D01*
X1586Y9586D02*
Y10602D01*
X2602D01*
Y9586D01*
X1586D01*
X2586Y7586D02*
Y8602D01*
X3602D01*
Y7586D01*
X2586D01*
X1586Y5586D02*
Y6602D01*
X2602D01*
Y5586D01*
X1586D01*
X45586Y17586D02*
Y18602D01*
X46602D01*
Y17586D01*
X45586D01*
X46586Y3586D02*
Y4602D01*
X47602D01*
Y3586D01*
X46586D01*
X43586Y17586D02*
Y18602D01*
X44602D01*
Y17586D01*
X43586D01*
X41586D02*
Y18602D01*
X42602D01*
Y17586D01*
X41586D01*
Y5586D02*
Y6602D01*
X42602D01*
Y5586D01*
X41586D01*
X39586Y17586D02*
Y18602D01*
X40602D01*
Y17586D01*
X39586D01*
X40586Y15586D02*
Y16602D01*
X41602D01*
Y15586D01*
X40586D01*
X39586Y1586D02*
Y2602D01*
X40602D01*
Y1586D01*
X39586D01*
X37586Y17586D02*
Y18602D01*
X38602D01*
Y17586D01*
X37586D01*
X38586Y15586D02*
Y16602D01*
X39602D01*
Y15586D01*
X38586D01*
X37586Y13586D02*
Y14602D01*
X38602D01*
Y13586D01*
X37586D01*
Y9586D02*
Y10602D01*
X38602D01*
Y9586D01*
X37586D01*
Y1586D02*
Y2602D01*
X38602D01*
Y1586D01*
X37586D01*
X35586Y17586D02*
Y18602D01*
X36602D01*
Y17586D01*
X35586D01*
X36586Y15586D02*
Y16602D01*
X37602D01*
Y15586D01*
X36586D01*
X35586Y13586D02*
Y14602D01*
X36602D01*
Y13586D01*
X35586D01*
X36586Y11586D02*
Y12602D01*
X37602D01*
Y11586D01*
X36586D01*
X35586Y9586D02*
Y10602D01*
X36602D01*
Y9586D01*
X35586D01*
X28380Y9083D02*
Y10099D01*
X29396D01*
Y9083D01*
X28380D01*
X28433Y9670D02*
Y10686D01*
X29449D01*
Y9670D01*
X28433D01*
X25244Y9921D02*
Y10937D01*
X26260D01*
Y9921D01*
X25244D01*
X23895Y9663D02*
Y10679D01*
X24911D01*
Y9663D01*
X23895D01*
X13279Y433D02*
Y1449D01*
X14295D01*
Y433D01*
X13279D01*
X15977Y12294D02*
Y13310D01*
X16993D01*
Y12294D01*
X15977D01*
X37287Y8052D02*
X37541D01*
X37795Y8306D01*
X38049Y8052D01*
X38303D01*
Y8306D01*
X38049Y8560D01*
X38303Y8814D01*
Y9068D01*
X38049D01*
X37795Y8814D01*
X37541Y9068D01*
X37287D01*
Y8814D01*
X37541Y8560D01*
X37287Y8306D01*
Y8052D01*
X36957Y7518D02*
X37211D01*
X37465Y7772D01*
X37719Y7518D01*
X37973D01*
Y7772D01*
X37719Y8026D01*
X37973Y8280D01*
Y8534D01*
X37719D01*
X37465Y8280D01*
X37211Y8534D01*
X36957D01*
Y8280D01*
X37211Y8026D01*
X36957Y7772D01*
Y7518D01*
X39370Y14249D02*
X39624D01*
X39878Y14503D01*
X40132Y14249D01*
X40386D01*
Y14503D01*
X40132Y14757D01*
X40386Y15011D01*
Y15265D01*
X40132D01*
X39878Y15011D01*
X39624Y15265D01*
X39370D01*
Y15011D01*
X39624Y14757D01*
X39370Y14503D01*
Y14249D01*
X46558Y16180D02*
Y17196D01*
X47574D01*
Y16180D01*
X46558D01*
X46685Y12649D02*
Y13665D01*
X47701D01*
Y12649D01*
X46685D01*
X21768Y559D02*
Y1575D01*
X22784D01*
Y559D01*
X21768D01*
X18821D02*
Y1575D01*
X19837D01*
Y559D01*
X18821D01*
X11504Y500D02*
Y1516D01*
X12520D01*
Y500D01*
X11504D01*
X14986Y2591D02*
X15240D01*
X15494Y2845D01*
X15748Y2591D01*
X16002D01*
Y2845D01*
X15748Y3099D01*
X16002Y3353D01*
Y3607D01*
X15748D01*
X15494Y3353D01*
X15240Y3607D01*
X14986D01*
Y3353D01*
X15240Y3099D01*
X14986Y2845D01*
Y2591D01*
X16359D02*
X16613D01*
X16867Y2845D01*
X17121Y2591D01*
X17375D01*
Y2845D01*
X17121Y3099D01*
X17375Y3353D01*
Y3607D01*
X17121D01*
X16867Y3353D01*
X16613Y3607D01*
X16359D01*
Y3353D01*
X16613Y3099D01*
X16359Y2845D01*
Y2591D01*
X15697D02*
Y3607D01*
X16713D01*
Y2591D01*
X15697D01*
X18440Y2769D02*
Y3785D01*
X19456D01*
Y2769D01*
X18440D01*
X24554Y3416D02*
Y4432D01*
X25570D01*
Y3416D01*
X24554D01*
X23343Y8738D02*
Y9754D01*
X24359D01*
Y8738D01*
X23343D01*
X23165Y10668D02*
Y11684D01*
X24181D01*
Y10668D01*
X23165D01*
X25136Y9030D02*
Y10046D01*
X26152D01*
Y9030D01*
X25136D01*
X25044Y8382D02*
Y9398D01*
X26060D01*
Y8382D01*
X25044D01*
X16348Y6711D02*
Y7727D01*
X17364D01*
Y6711D01*
X16348D01*
X16367Y7746D02*
Y8762D01*
X17383D01*
Y7746D01*
X16367D01*
X16129Y8661D02*
Y9677D01*
X17145D01*
Y8661D01*
X16129D01*
X16739Y5639D02*
Y6655D01*
X17755D01*
Y5639D01*
X16739D01*
X22987Y5613D02*
Y6629D01*
X24003D01*
Y5613D01*
X22987D01*
X23012Y4877D02*
Y5893D01*
X24028D01*
Y4877D01*
X23012D01*
X13564Y7366D02*
Y8382D01*
X14580D01*
Y7366D01*
X13564D01*
X18120Y13233D02*
Y14249D01*
X19136D01*
Y13233D01*
X18120D01*
X25044Y13411D02*
Y14427D01*
X26060D01*
Y13411D01*
X25044D01*
X24257D02*
Y14427D01*
X25273D01*
Y13411D01*
X24257D01*
X26314Y6401D02*
X26568D01*
X26822Y6655D01*
X27076Y6401D01*
X27330D01*
Y6655D01*
X27076Y6909D01*
X27330Y7163D01*
Y7417D01*
X27076D01*
X26822Y7163D01*
X26568Y7417D01*
X26314D01*
Y7163D01*
X26568Y6909D01*
X26314Y6655D01*
Y6401D01*
Y5664D02*
X26568D01*
X26822Y5918D01*
X27076Y5664D01*
X27330D01*
Y5918D01*
X27076Y6172D01*
X27330Y6426D01*
Y6680D01*
X27076D01*
X26822Y6426D01*
X26568Y6680D01*
X26314D01*
Y6426D01*
X26568Y6172D01*
X26314Y5918D01*
Y5664D01*
X25578D02*
X25832D01*
X26086Y5918D01*
X26340Y5664D01*
X26594D01*
Y5918D01*
X26340Y6172D01*
X26594Y6426D01*
Y6680D01*
X26340D01*
X26086Y6426D01*
X25832Y6680D01*
X25578D01*
Y6426D01*
X25832Y6172D01*
X25578Y5918D01*
Y5664D01*
X20498Y1727D02*
Y2743D01*
X21514D01*
Y1727D01*
X20498D01*
X26416Y1549D02*
Y2565D01*
X27432D01*
Y1549D01*
X26416D01*
X23876Y2819D02*
Y3835D01*
X24892D01*
Y2819D01*
X23876D01*
X22733Y9246D02*
Y10262D01*
X23749D01*
Y9246D01*
X22733D01*
X22682Y8230D02*
Y9246D01*
X23698D01*
Y8230D01*
X22682D01*
X21463Y13284D02*
Y14300D01*
X22479D01*
Y13284D01*
X21463D01*
X5975Y9322D02*
Y10338D01*
X6991D01*
Y9322D01*
X5975D01*
X5992Y8238D02*
Y9254D01*
X7008D01*
Y8238D01*
X5992D01*
X12978Y3724D02*
Y4740D01*
X13994D01*
Y3724D01*
X12978D01*
X13005Y4597D02*
Y5613D01*
X14021D01*
Y4597D01*
X13005D01*
X18440Y3962D02*
Y4978D01*
X19456D01*
Y3962D01*
X18440D01*
X36805Y1575D02*
Y2591D01*
X37821D01*
Y1575D01*
X36805D01*
X405Y1726D02*
Y2742D01*
X1421D01*
Y1726D01*
X405D01*
X4854Y8232D02*
Y9248D01*
X5870D01*
Y8232D01*
X4854D01*
X5246Y9320D02*
Y10336D01*
X6262D01*
Y9320D01*
X5246D01*
X12522Y1829D02*
Y2845D01*
X13538D01*
Y1829D01*
X12522D01*
X11811Y1803D02*
Y2819D01*
X12827D01*
Y1803D01*
X11811D01*
X9238Y12776D02*
Y13792D01*
X10254D01*
Y12776D01*
X9238D01*
X9696Y11711D02*
Y12727D01*
X10712D01*
Y11711D01*
X9696D01*
X11625Y6639D02*
Y7655D01*
X12641D01*
Y6639D01*
X11625D01*
X10317Y3740D02*
Y4756D01*
X11333D01*
Y3740D01*
X10317D01*
X8928Y3476D02*
X9182D01*
X9436Y3730D01*
X9690Y3476D01*
X9944D01*
Y3730D01*
X9690Y3984D01*
X9944Y4238D01*
Y4492D01*
X9690D01*
X9436Y4238D01*
X9182Y4492D01*
X8928D01*
Y4238D01*
X9182Y3984D01*
X8928Y3730D01*
Y3476D01*
X11141Y1834D02*
X11395D01*
X11649Y2088D01*
X11903Y1834D01*
X12157D01*
Y2088D01*
X11903Y2342D01*
X12157Y2596D01*
Y2850D01*
X11903D01*
X11649Y2596D01*
X11395Y2850D01*
X11141D01*
Y2596D01*
X11395Y2342D01*
X11141Y2088D01*
Y1834D01*
X9607Y1861D02*
X9861D01*
X10115Y2115D01*
X10369Y1861D01*
X10623D01*
Y2115D01*
X10369Y2369D01*
X10623Y2623D01*
Y2877D01*
X10369D01*
X10115Y2623D01*
X9861Y2877D01*
X9607D01*
Y2623D01*
X9861Y2369D01*
X9607Y2115D01*
Y1861D01*
X6062Y1269D02*
Y2285D01*
X7078D01*
Y1269D01*
X6062D01*
X9144Y10847D02*
X9398D01*
X9652Y11101D01*
X9906Y10847D01*
X10160D01*
Y11101D01*
X9906Y11355D01*
X10160Y11609D01*
Y11863D01*
X9906D01*
X9652Y11609D01*
X9398Y11863D01*
X9144D01*
Y11609D01*
X9398Y11355D01*
X9144Y11101D01*
Y10847D01*
Y10136D02*
X9398D01*
X9652Y10390D01*
X9906Y10136D01*
X10160D01*
Y10390D01*
X9906Y10644D01*
X10160Y10898D01*
Y11152D01*
X9906D01*
X9652Y10898D01*
X9398Y11152D01*
X9144D01*
Y10898D01*
X9398Y10644D01*
X9144Y10390D01*
Y10136D01*
X8407Y10847D02*
X8661D01*
X8915Y11101D01*
X9169Y10847D01*
X9423D01*
Y11101D01*
X9169Y11355D01*
X9423Y11609D01*
Y11863D01*
X9169D01*
X8915Y11609D01*
X8661Y11863D01*
X8407D01*
Y11609D01*
X8661Y11355D01*
X8407Y11101D01*
Y10847D01*
Y11811D02*
X8661D01*
X8915Y12065D01*
X9169Y11811D01*
X9423D01*
Y12065D01*
X9169Y12319D01*
X9423Y12573D01*
Y12827D01*
X9169D01*
X8915Y12573D01*
X8661Y12827D01*
X8407D01*
Y12573D01*
X8661Y12319D01*
X8407Y12065D01*
Y11811D01*
Y6161D02*
X8661D01*
X8915Y6415D01*
X9169Y6161D01*
X9423D01*
Y6415D01*
X9169Y6669D01*
X9423Y6923D01*
Y7177D01*
X9169D01*
X8915Y6923D01*
X8661Y7177D01*
X8407D01*
Y6923D01*
X8661Y6669D01*
X8407Y6415D01*
Y6161D01*
X9144D02*
X9398D01*
X9652Y6415D01*
X9906Y6161D01*
X10160D01*
Y6415D01*
X9906Y6669D01*
X10160Y6923D01*
Y7177D01*
X9906D01*
X9652Y6923D01*
X9398Y7177D01*
X9144D01*
Y6923D01*
X9398Y6669D01*
X9144Y6415D01*
Y6161D01*
Y6898D02*
X9398D01*
X9652Y7152D01*
X9906Y6898D01*
X10160D01*
Y7152D01*
X9906Y7406D01*
X10160Y7660D01*
Y7914D01*
X9906D01*
X9652Y7660D01*
X9398Y7914D01*
X9144D01*
Y7660D01*
X9398Y7406D01*
X9144Y7152D01*
Y6898D01*
X8407Y5197D02*
X8661D01*
X8915Y5451D01*
X9169Y5197D01*
X9423D01*
Y5451D01*
X9169Y5705D01*
X9423Y5959D01*
Y6213D01*
X9169D01*
X8915Y5959D01*
X8661Y6213D01*
X8407D01*
Y5959D01*
X8661Y5705D01*
X8407Y5451D01*
Y5197D01*
X9144D02*
X9398D01*
X9652Y5451D01*
X9906Y5197D01*
X10160D01*
Y5451D01*
X9906Y5705D01*
X10160Y5959D01*
Y6213D01*
X9906D01*
X9652Y5959D01*
X9398Y6213D01*
X9144D01*
Y5959D01*
X9398Y5705D01*
X9144Y5451D01*
Y5197D01*
X9079Y11814D02*
X9333D01*
X9587Y12068D01*
X9841Y11814D01*
X10095D01*
Y12068D01*
X9841Y12322D01*
X10095Y12576D01*
Y12830D01*
X9841D01*
X9587Y12576D01*
X9333Y12830D01*
X9079D01*
Y12576D01*
X9333Y12322D01*
X9079Y12068D01*
Y11814D01*
D53*
X21534Y7992D02*
G03*
X21534Y7992I-508J0D01*
G01*
X19477Y7967D02*
G03*
X19477Y7967I-508J0D01*
G01*
X21539Y10033D02*
G03*
X21539Y10033I-508J0D01*
G01*
X19482Y10008D02*
G03*
X19482Y10008I-508J0D01*
G01*
X20508Y9000D02*
G03*
X20508Y9000I-508J0D01*
G01*
%TF.MD5,e75a85a85c36079c40060999b59504f4*%
M02*
