%TF.GenerationSoftware,Altium Limited,Altium Designer,24.10.1 (45)*%
G04 Layer_Color=128*
%FSLAX43Y43*%
%MOMM*%
%TF.SameCoordinates,03FC4992-70BC-4192-B68A-594B15B74146*%
%TF.FilePolarity,Positive*%
%TF.FileFunction,Paste,Bot*%
%TF.Part,Single*%
G01*
G75*
%TA.AperFunction,ComponentPad*%
%ADD48O,1.800X1.000*%
%ADD49O,2.100X1.000*%
%ADD50C,0.650*%
G04:AMPARAMS|DCode=51|XSize=1.7mm|YSize=1.7mm|CornerRadius=0.85mm|HoleSize=0mm|Usage=FLASHONLY|Rotation=90.000|XOffset=0mm|YOffset=0mm|HoleType=Round|Shape=RoundedRectangle|*
%AMROUNDEDRECTD51*
21,1,1.700,0.000,0,0,90.0*
21,1,0.000,1.700,0,0,90.0*
1,1,1.700,0.000,0.000*
1,1,1.700,0.000,0.000*
1,1,1.700,0.000,0.000*
1,1,1.700,0.000,0.000*
%
%ADD51ROUNDEDRECTD51*%
%ADD52R,1.700X1.700*%
G04:AMPARAMS|DCode=53|XSize=1.7mm|YSize=1.7mm|CornerRadius=0.85mm|HoleSize=0mm|Usage=FLASHONLY|Rotation=0.000|XOffset=0mm|YOffset=0mm|HoleType=Round|Shape=RoundedRectangle|*
%AMROUNDEDRECTD53*
21,1,1.700,0.000,0,0,0.0*
21,1,0.000,1.700,0,0,0.0*
1,1,1.700,0.000,0.000*
1,1,1.700,0.000,0.000*
1,1,1.700,0.000,0.000*
1,1,1.700,0.000,0.000*
%
%ADD53ROUNDEDRECTD53*%
%ADD54R,1.700X1.700*%
%ADD55C,0.800*%
D48*
X2922Y4680D02*
D03*
Y13320D02*
D03*
D49*
X7102Y4680D02*
D03*
Y13320D02*
D03*
D50*
X6602Y6110D02*
D03*
Y11890D02*
D03*
D51*
X7300Y18140D02*
D03*
X9840Y15600D02*
D03*
X20000D02*
D03*
X22540D02*
D03*
X14920D02*
D03*
X17460D02*
D03*
X25080D02*
D03*
X27620D02*
D03*
X12380D02*
D03*
X17460Y18140D02*
D03*
X9840D02*
D03*
X14920D02*
D03*
X12380D02*
D03*
X27620D02*
D03*
X20000D02*
D03*
X25080D02*
D03*
X22540D02*
D03*
D52*
X7300Y15600D02*
D03*
D53*
X43485Y7544D02*
D03*
Y2464D02*
D03*
Y5004D02*
D03*
X46025D02*
D03*
Y2464D02*
D03*
Y10084D02*
D03*
Y7544D02*
D03*
D54*
X43485Y10084D02*
D03*
D55*
X30833Y15933D02*
D03*
X30350Y17100D02*
D03*
X32000Y15450D02*
D03*
X33167Y15933D02*
D03*
X30833Y18267D02*
D03*
X32000Y18750D02*
D03*
X33650Y17100D02*
D03*
X33167Y18267D02*
D03*
X1733Y15933D02*
D03*
X1250Y17100D02*
D03*
X2900Y15450D02*
D03*
X4067Y15933D02*
D03*
X1733Y18267D02*
D03*
X2900Y18750D02*
D03*
X4550Y17100D02*
D03*
X4067Y18267D02*
D03*
%TF.MD5,7d468716cb5904a22d2a3805860c1a27*%
M02*
