G04*
G04 #@! TF.GenerationSoftware,Altium Limited,Altium Designer,24.10.1 (45)*
G04*
G04 Layer_Color=8388736*
%FSLAX43Y43*%
%MOMM*%
G71*
G04*
G04 #@! TF.SameCoordinates,D4E83C11-CEE0-4B41-BABA-8FBCDDE4BD80*
G04*
G04*
G04 #@! TF.FilePolarity,Negative*
G04*
G01*
G75*
G04:AMPARAMS|DCode=22|XSize=0.239mm|YSize=0.979mm|CornerRadius=0.12mm|HoleSize=0mm|Usage=FLASHONLY|Rotation=90.000|XOffset=0mm|YOffset=0mm|HoleType=Round|Shape=RoundedRectangle|*
%AMROUNDEDRECTD22*
21,1,0.239,0.740,0,0,90.0*
21,1,0.000,0.979,0,0,90.0*
1,1,0.239,0.370,0.000*
1,1,0.239,0.370,0.000*
1,1,0.239,-0.370,0.000*
1,1,0.239,-0.370,0.000*
%
%ADD22ROUNDEDRECTD22*%
G04:AMPARAMS|DCode=23|XSize=0.979mm|YSize=0.239mm|CornerRadius=0.12mm|HoleSize=0mm|Usage=FLASHONLY|Rotation=90.000|XOffset=0mm|YOffset=0mm|HoleType=Round|Shape=RoundedRectangle|*
%AMROUNDEDRECTD23*
21,1,0.979,0.000,0,0,90.0*
21,1,0.740,0.239,0,0,90.0*
1,1,0.239,0.000,0.370*
1,1,0.239,0.000,-0.370*
1,1,0.239,0.000,-0.370*
1,1,0.239,0.000,0.370*
%
%ADD23ROUNDEDRECTD23*%
%ADD24R,0.239X0.979*%
%ADD25R,1.150X0.300*%
%ADD26R,1.150X0.600*%
%ADD39C,0.650*%
%ADD47R,2.700X2.700*%
%ADD48R,1.226X0.376*%
G04:AMPARAMS|DCode=49|XSize=0.726mm|YSize=1.676mm|CornerRadius=0.152mm|HoleSize=0mm|Usage=FLASHONLY|Rotation=180.000|XOffset=0mm|YOffset=0mm|HoleType=Round|Shape=RoundedRectangle|*
%AMROUNDEDRECTD49*
21,1,0.726,1.373,0,0,180.0*
21,1,0.422,1.676,0,0,180.0*
1,1,0.304,-0.211,0.686*
1,1,0.304,0.211,0.686*
1,1,0.304,0.211,-0.686*
1,1,0.304,-0.211,-0.686*
%
%ADD49ROUNDEDRECTD49*%
%ADD50R,0.726X1.676*%
G04:AMPARAMS|DCode=51|XSize=1.232mm|YSize=0.612mm|CornerRadius=0.306mm|HoleSize=0mm|Usage=FLASHONLY|Rotation=90.000|XOffset=0mm|YOffset=0mm|HoleType=Round|Shape=RoundedRectangle|*
%AMROUNDEDRECTD51*
21,1,1.232,0.000,0,0,90.0*
21,1,0.620,0.612,0,0,90.0*
1,1,0.612,0.000,0.310*
1,1,0.612,0.000,-0.310*
1,1,0.612,0.000,-0.310*
1,1,0.612,0.000,0.310*
%
%ADD51ROUNDEDRECTD51*%
%ADD52R,0.612X1.232*%
G04:AMPARAMS|DCode=53|XSize=0.726mm|YSize=1.976mm|CornerRadius=0.201mm|HoleSize=0mm|Usage=FLASHONLY|Rotation=90.000|XOffset=0mm|YOffset=0mm|HoleType=Round|Shape=RoundedRectangle|*
%AMROUNDEDRECTD53*
21,1,0.726,1.575,0,0,90.0*
21,1,0.325,1.976,0,0,90.0*
1,1,0.401,0.788,0.163*
1,1,0.401,0.788,-0.163*
1,1,0.401,-0.788,-0.163*
1,1,0.401,-0.788,0.163*
%
%ADD53ROUNDEDRECTD53*%
%ADD54R,1.976X0.726*%
%ADD55R,0.906X0.701*%
%ADD56R,0.576X0.876*%
G04:AMPARAMS|DCode=57|XSize=0.876mm|YSize=1.076mm|CornerRadius=0.138mm|HoleSize=0mm|Usage=FLASHONLY|Rotation=90.000|XOffset=0mm|YOffset=0mm|HoleType=Round|Shape=RoundedRectangle|*
%AMROUNDEDRECTD57*
21,1,0.876,0.800,0,0,90.0*
21,1,0.600,1.076,0,0,90.0*
1,1,0.276,0.400,0.300*
1,1,0.276,0.400,-0.300*
1,1,0.276,-0.400,-0.300*
1,1,0.276,-0.400,0.300*
%
%ADD57ROUNDEDRECTD57*%
%ADD58R,0.350X0.660*%
%ADD59R,0.350X0.430*%
%ADD60R,1.250X1.100*%
%ADD61R,0.876X0.976*%
%ADD62R,0.976X0.876*%
%ADD63R,0.876X0.576*%
%ADD64O,2.176X1.076*%
%ADD65O,1.876X1.076*%
G04:AMPARAMS|DCode=66|XSize=1.776mm|YSize=1.776mm|CornerRadius=0.888mm|HoleSize=0mm|Usage=FLASHONLY|Rotation=90.000|XOffset=0mm|YOffset=0mm|HoleType=Round|Shape=RoundedRectangle|*
%AMROUNDEDRECTD66*
21,1,1.776,0.000,0,0,90.0*
21,1,0.000,1.776,0,0,90.0*
1,1,1.776,0.000,0.000*
1,1,1.776,0.000,0.000*
1,1,1.776,0.000,0.000*
1,1,1.776,0.000,0.000*
%
%ADD66ROUNDEDRECTD66*%
%ADD67R,1.776X1.776*%
G04:AMPARAMS|DCode=68|XSize=1.776mm|YSize=1.776mm|CornerRadius=0.888mm|HoleSize=0mm|Usage=FLASHONLY|Rotation=0.000|XOffset=0mm|YOffset=0mm|HoleType=Round|Shape=RoundedRectangle|*
%AMROUNDEDRECTD68*
21,1,1.776,0.000,0,0,0.0*
21,1,0.000,1.776,0,0,0.0*
1,1,1.776,0.000,0.000*
1,1,1.776,0.000,0.000*
1,1,1.776,0.000,0.000*
1,1,1.776,0.000,0.000*
%
%ADD68ROUNDEDRECTD68*%
%ADD69R,1.776X1.776*%
%ADD70C,0.876*%
%ADD71C,0.600*%
D22*
X18010Y7750D02*
D03*
Y8250D02*
D03*
Y8750D02*
D03*
Y9250D02*
D03*
Y9750D02*
D03*
Y10250D02*
D03*
X21990D02*
D03*
Y9750D02*
D03*
Y9250D02*
D03*
Y8750D02*
D03*
Y8250D02*
D03*
Y7750D02*
D03*
D23*
X18750Y10989D02*
D03*
X19250D02*
D03*
X19750D02*
D03*
X20250D02*
D03*
X20750D02*
D03*
X21250D02*
D03*
Y7010D02*
D03*
X20750D02*
D03*
X20250D02*
D03*
X19750D02*
D03*
X19250D02*
D03*
D24*
X18750D02*
D03*
D25*
X7677Y9750D02*
D03*
Y10250D02*
D03*
Y8750D02*
D03*
Y9250D02*
D03*
Y10750D02*
D03*
Y7250D02*
D03*
Y8250D02*
D03*
D26*
Y12200D02*
D03*
Y11400D02*
D03*
Y5800D02*
D03*
Y6600D02*
D03*
D39*
X6602Y11890D02*
D03*
Y6110D02*
D03*
D47*
X20000Y9000D02*
D03*
D48*
X7677Y7750D02*
D03*
D49*
X16306Y4333D02*
D03*
X14406D02*
D03*
X16306Y1833D02*
D03*
X15356D02*
D03*
D50*
X14406D02*
D03*
D51*
X13073Y10175D02*
D03*
X12123D02*
D03*
X11173D02*
D03*
X12123Y8025D02*
D03*
X13073D02*
D03*
D52*
X11173D02*
D03*
D53*
X35650Y5905D02*
D03*
Y4635D02*
D03*
Y3365D02*
D03*
Y2095D02*
D03*
X28350D02*
D03*
Y3365D02*
D03*
Y4635D02*
D03*
D54*
Y5905D02*
D03*
D55*
X43231Y16378D02*
D03*
Y14153D02*
D03*
X4938Y2984D02*
D03*
Y759D02*
D03*
D56*
X46445Y16662D02*
D03*
X44945D02*
D03*
X10658Y13244D02*
D03*
X9158D02*
D03*
X26455Y8839D02*
D03*
X24955D02*
D03*
X26429Y7645D02*
D03*
X24929D02*
D03*
X18632Y12627D02*
D03*
X17132D02*
D03*
X13164Y6242D02*
D03*
X11664D02*
D03*
X19317Y1833D02*
D03*
X17817D02*
D03*
D57*
X28372Y12620D02*
D03*
Y11120D02*
D03*
X26581Y12620D02*
D03*
Y11120D02*
D03*
X24790Y12620D02*
D03*
Y11120D02*
D03*
D58*
X3318Y2230D02*
D03*
X44812Y14503D02*
D03*
D59*
X3193Y3165D02*
D03*
X2543D02*
D03*
X3193Y1295D02*
D03*
X2543D02*
D03*
X1893Y3165D02*
D03*
Y1295D02*
D03*
X46237Y15438D02*
D03*
X45587D02*
D03*
X46237Y13568D02*
D03*
X45587D02*
D03*
X44937D02*
D03*
Y15438D02*
D03*
D60*
X2258Y2230D02*
D03*
X45872Y14503D02*
D03*
D61*
X21222Y12627D02*
D03*
X19722D02*
D03*
X46903Y12344D02*
D03*
X45603D02*
D03*
X23662Y3371D02*
D03*
X22362D02*
D03*
X12194Y11878D02*
D03*
X10894D02*
D03*
X21046Y3320D02*
D03*
X19746D02*
D03*
X23662Y4547D02*
D03*
X22362D02*
D03*
X28819Y8839D02*
D03*
X27519D02*
D03*
X28819Y7645D02*
D03*
X27519D02*
D03*
X21046Y4496D02*
D03*
X19746D02*
D03*
D62*
X9393Y2294D02*
D03*
Y994D02*
D03*
X14580Y7152D02*
D03*
Y5852D02*
D03*
X10827Y2294D02*
D03*
Y994D02*
D03*
X37465Y7279D02*
D03*
Y5979D02*
D03*
X38811Y8397D02*
D03*
Y7097D02*
D03*
X39903Y14010D02*
D03*
Y12710D02*
D03*
D63*
X7960Y2388D02*
D03*
Y888D02*
D03*
X9424Y4871D02*
D03*
Y3371D02*
D03*
X6570Y2388D02*
D03*
Y888D02*
D03*
X12261Y4871D02*
D03*
Y3371D02*
D03*
X10827Y4871D02*
D03*
Y3371D02*
D03*
X26289Y5398D02*
D03*
Y3898D02*
D03*
X24917Y6135D02*
D03*
Y4635D02*
D03*
X38811Y6135D02*
D03*
Y4635D02*
D03*
X40192Y5356D02*
D03*
Y3856D02*
D03*
X41148Y14136D02*
D03*
Y12636D02*
D03*
D64*
X7102Y13320D02*
D03*
Y4680D02*
D03*
D65*
X2922Y13320D02*
D03*
Y4680D02*
D03*
D66*
X22540Y18140D02*
D03*
X25080D02*
D03*
X20000D02*
D03*
X27620D02*
D03*
X12380D02*
D03*
X14920D02*
D03*
X9840D02*
D03*
X17460D02*
D03*
X12380Y15600D02*
D03*
X27620D02*
D03*
X25080D02*
D03*
X17460D02*
D03*
X14920D02*
D03*
X22540D02*
D03*
X20000D02*
D03*
X9840D02*
D03*
X7300Y18140D02*
D03*
D67*
Y15600D02*
D03*
D68*
X46025Y7544D02*
D03*
Y10084D02*
D03*
Y2464D02*
D03*
Y5004D02*
D03*
X43485D02*
D03*
Y2464D02*
D03*
Y7544D02*
D03*
D69*
Y10084D02*
D03*
D70*
X33167Y18267D02*
D03*
X33650Y17100D02*
D03*
X32000Y18750D02*
D03*
X30833Y18267D02*
D03*
X33167Y15933D02*
D03*
X32000Y15450D02*
D03*
X30350Y17100D02*
D03*
X30833Y15933D02*
D03*
X4067Y18267D02*
D03*
X4550Y17100D02*
D03*
X2900Y18750D02*
D03*
X1733Y18267D02*
D03*
X4067Y15933D02*
D03*
X2900Y15450D02*
D03*
X1250Y17100D02*
D03*
X1733Y15933D02*
D03*
D71*
X21026Y7992D02*
D03*
X18969Y7967D02*
D03*
X21031Y10033D02*
D03*
X18974Y10008D02*
D03*
X20000Y9000D02*
D03*
M02*
