G04*
G04 #@! TF.GenerationSoftware,Altium Limited,Altium Designer,24.10.1 (45)*
G04*
G04 Layer_Color=16711935*
%FSLAX43Y43*%
%MOMM*%
G71*
G04*
G04 #@! TF.SameCoordinates,D4E83C11-CEE0-4B41-BABA-8FBCDDE4BD80*
G04*
G04*
G04 #@! TF.FilePolarity,Negative*
G04*
G01*
G75*
%ADD39C,0.650*%
%ADD64O,2.176X1.076*%
%ADD65O,1.876X1.076*%
G04:AMPARAMS|DCode=66|XSize=1.776mm|YSize=1.776mm|CornerRadius=0.888mm|HoleSize=0mm|Usage=FLASHONLY|Rotation=90.000|XOffset=0mm|YOffset=0mm|HoleType=Round|Shape=RoundedRectangle|*
%AMROUNDEDRECTD66*
21,1,1.776,0.000,0,0,90.0*
21,1,0.000,1.776,0,0,90.0*
1,1,1.776,0.000,0.000*
1,1,1.776,0.000,0.000*
1,1,1.776,0.000,0.000*
1,1,1.776,0.000,0.000*
%
%ADD66ROUNDEDRECTD66*%
%ADD67R,1.776X1.776*%
G04:AMPARAMS|DCode=68|XSize=1.776mm|YSize=1.776mm|CornerRadius=0.888mm|HoleSize=0mm|Usage=FLASHONLY|Rotation=0.000|XOffset=0mm|YOffset=0mm|HoleType=Round|Shape=RoundedRectangle|*
%AMROUNDEDRECTD68*
21,1,1.776,0.000,0,0,0.0*
21,1,0.000,1.776,0,0,0.0*
1,1,1.776,0.000,0.000*
1,1,1.776,0.000,0.000*
1,1,1.776,0.000,0.000*
1,1,1.776,0.000,0.000*
%
%ADD68ROUNDEDRECTD68*%
%ADD69R,1.776X1.776*%
%ADD70C,0.876*%
D39*
X6602Y11890D02*
D03*
Y6110D02*
D03*
D64*
X7102Y13320D02*
D03*
Y4680D02*
D03*
D65*
X2922Y13320D02*
D03*
Y4680D02*
D03*
D66*
X22540Y18140D02*
D03*
X25080D02*
D03*
X20000D02*
D03*
X27620D02*
D03*
X12380D02*
D03*
X14920D02*
D03*
X9840D02*
D03*
X17460D02*
D03*
X12380Y15600D02*
D03*
X27620D02*
D03*
X25080D02*
D03*
X17460D02*
D03*
X14920D02*
D03*
X22540D02*
D03*
X20000D02*
D03*
X9840D02*
D03*
X7300Y18140D02*
D03*
D67*
Y15600D02*
D03*
D68*
X46025Y7544D02*
D03*
Y10084D02*
D03*
Y2464D02*
D03*
Y5004D02*
D03*
X43485D02*
D03*
Y2464D02*
D03*
Y7544D02*
D03*
D69*
Y10084D02*
D03*
D70*
X33167Y18267D02*
D03*
X33650Y17100D02*
D03*
X32000Y18750D02*
D03*
X30833Y18267D02*
D03*
X33167Y15933D02*
D03*
X32000Y15450D02*
D03*
X30350Y17100D02*
D03*
X30833Y15933D02*
D03*
X4067Y18267D02*
D03*
X4550Y17100D02*
D03*
X2900Y18750D02*
D03*
X1733Y18267D02*
D03*
X4067Y15933D02*
D03*
X2900Y15450D02*
D03*
X1250Y17100D02*
D03*
X1733Y15933D02*
D03*
M02*
